<svg width="18" height="20" viewBox="0 0 18 20" fill="none" xmlns="http://www.w3.org/2000/svg">
<path d="M9 0C5.53127 0 2.7 2.85986 2.7 6.36364C2.7 8.55349 3.80804 10.5019 5.48438 11.6477C2.27395 13.0385 0 16.2557 0 20H1.8C1.8 15.9721 5.0124 12.7273 9 12.7273C12.9876 12.7273 16.2 15.9721 16.2 20H18C18 16.2557 15.726 13.0385 12.5156 11.6477C14.192 10.5019 15.3 8.55349 15.3 6.36364C15.3 2.85986 12.4687 0 9 0ZM9 1.81818C11.4959 1.81818 13.5 3.84248 13.5 6.36364C13.5 8.88479 11.4959 10.9091 9 10.9091C6.50406 10.9091 4.5 8.88479 4.5 6.36364C4.5 3.84248 6.50406 1.81818 9 1.81818Z" fill="black"/>
</svg>
