<svg width="20" height="20" viewBox="0 0 20 20" fill="none" xmlns="http://www.w3.org/2000/svg">
<g clip-path="url(#clip0_3_32)">
<path d="M10 20C8.02219 20 6.08879 19.4352 4.4443 18.3771C2.79981 17.319 1.51809 15.8151 0.761209 14.0555C0.00433284 12.2959 -0.193701 10.3597 0.192152 8.49174C0.578004 6.62377 1.53041 4.90794 2.92894 3.56121C4.32746 2.21448 6.10929 1.29735 8.0491 0.925788C9.98891 0.554227 11.9996 0.744926 13.8268 1.47377C15.6541 2.20261 17.2159 3.43687 18.3147 5.02045C19.4135 6.60404 20 8.46583 20 10.3704C20 12.9243 18.9464 15.3737 17.0711 17.1796C15.1957 18.9855 12.6522 20 10 20ZM10 2.22224C8.32647 2.22224 6.69052 2.70012 5.29903 3.59545C3.90753 4.49078 2.823 5.76335 2.18256 7.25223C1.54213 8.7411 1.37456 10.3794 1.70105 11.96C2.02754 13.5406 2.83343 14.9925 4.01679 16.132C5.20016 17.2715 6.70786 18.0476 8.34924 18.362C9.99062 18.6764 11.692 18.515 13.2381 17.8983C14.7842 17.2816 16.1057 16.2372 17.0355 14.8973C17.9653 13.5573 18.4615 11.9819 18.4615 10.3704C18.4615 8.20936 17.5701 6.13685 15.9832 4.60878C14.3964 3.0807 12.2441 2.22224 10 2.22224Z" fill="#444444"/>
<path d="M14.2308 15.1852C14.1295 15.1858 14.0292 15.1671 13.9355 15.1302C13.8418 15.0934 13.7565 15.0391 13.6846 14.9704L9.45386 10.8963C9.38257 10.8271 9.32617 10.745 9.28789 10.6548C9.24961 10.5645 9.2302 10.4679 9.23079 10.3704V4.44448C9.23079 4.24802 9.31183 4.05961 9.45609 3.92069C9.60035 3.78178 9.796 3.70374 10 3.70374C10.204 3.70374 10.3997 3.78178 10.5439 3.92069C10.6882 4.05961 10.7692 4.24802 10.7692 4.44448V10.0667L14.7769 13.9186C14.849 13.9874 14.9063 14.0693 14.9453 14.1596C14.9844 14.2499 15.0045 14.3467 15.0045 14.4445C15.0045 14.5423 14.9844 14.6391 14.9453 14.7293C14.9063 14.8196 14.849 14.9015 14.7769 14.9704C14.7051 15.0391 14.6198 15.0934 14.5261 15.1302C14.4324 15.1671 14.332 15.1858 14.2308 15.1852Z" fill="#444444"/>
</g>
<defs>
<clipPath id="clip0_3_32">
<rect width="20" height="20" fill="white"/>
</clipPath>
</defs>
</svg>
