<svg width="20" height="20" viewBox="0 0 20 20" fill="none" xmlns="http://www.w3.org/2000/svg">
<g clip-path="url(#clip0_4_53)">
<path d="M8.06795 0C3.79074 0 0.322708 3.46806 0.322708 7.74524C0.322708 12.0224 3.79074 15.4905 8.06795 15.4905C9.71267 15.4905 11.238 14.9774 12.4918 14.1036L18.3491 19.9599C18.4019 20.0128 18.4875 20.0128 18.5377 19.9635L19.6411 18.8601C19.6922 18.8091 19.6876 18.7216 19.6375 18.6714L13.8568 12.8908C15.0742 11.5231 15.8132 9.7207 15.8132 7.7452C15.8132 3.46806 12.3452 0 8.06795 0ZM8.06795 14.5793C4.29375 14.5793 1.23391 11.5194 1.23391 7.74524C1.23391 3.97104 4.29371 0.911228 8.06795 0.911228C11.8422 0.911228 14.902 3.97104 14.902 7.74524C14.902 11.5194 11.8421 14.5793 8.06795 14.5793Z" fill="#444444"/>
</g>
<defs>
<clipPath id="clip0_4_53">
<rect width="20" height="20" fill="white"/>
</clipPath>
</defs>
</svg>
