<svg width="22" height="22" viewBox="0 0 22 22" fill="none" xmlns="http://www.w3.org/2000/svg">
<g clip-path="url(#clip0_4_80)">
<path d="M21.8487 10.3503L19.8447 8.34624L11.8594 0.352339C11.7476 0.240605 11.615 0.151973 11.469 0.0915026C11.323 0.0310323 11.1666 -9.15527e-05 11.0086 -9.15527e-05C10.8506 -9.15527e-05 10.6941 0.0310323 10.5481 0.0915026C10.4022 0.151973 10.2695 0.240605 10.1578 0.352339L2.16045 8.34109L0.151236 10.3503C0.060156 10.4481 0.0105713 10.5773 0.0129282 10.7109C0.0152851 10.8445 0.0693996 10.972 0.163871 11.0664C0.258343 11.1609 0.385795 11.215 0.519377 11.2174C0.652959 11.2197 0.782241 11.1701 0.879986 11.0791L2.0092 9.94984V20.7969C2.0092 21.116 2.13596 21.422 2.36159 21.6476C2.58722 21.8732 2.89324 22 3.21233 22H7.90624C8.22533 22 8.53135 21.8732 8.75698 21.6476C8.9826 21.422 9.10936 21.116 9.10936 20.7969V13.9219C9.10936 13.8763 9.12747 13.8326 9.1597 13.8003C9.19194 13.7681 9.23565 13.75 9.28124 13.75H12.7187C12.7643 13.75 12.808 13.7681 12.8403 13.8003C12.8725 13.8326 12.8906 13.8763 12.8906 13.9219V20.7969C12.8906 21.116 13.0174 21.422 13.243 21.6476C13.4686 21.8732 13.7747 22 14.0937 22H18.7928C18.9508 22 19.1072 21.9689 19.2532 21.9084C19.3992 21.8479 19.5318 21.7593 19.6435 21.6476C19.7553 21.5359 19.8439 21.4033 19.9043 21.2573C19.9648 21.1113 19.9959 20.9549 19.9959 20.7969V9.95499L21.12 11.0791C21.2177 11.1701 21.347 11.2197 21.4806 11.2174C21.6142 11.215 21.7416 11.1609 21.8361 11.0664C21.9306 10.972 21.9847 10.8445 21.987 10.7109C21.9894 10.5773 21.9398 10.4481 21.8487 10.3503ZM18.9647 20.7969C18.9647 20.8425 18.9466 20.8862 18.9143 20.9184C18.8821 20.9506 18.8384 20.9687 18.7928 20.9687H14.0937C14.0482 20.9687 14.0044 20.9506 13.9722 20.9184C13.94 20.8862 13.9219 20.8425 13.9219 20.7969V13.9219C13.9219 13.6028 13.7951 13.2968 13.5695 13.0711C13.3438 12.8455 13.0378 12.7187 12.7187 12.7187H9.28124C8.96215 12.7187 8.65613 12.8455 8.4305 13.0711C8.20487 13.2968 8.07811 13.6028 8.07811 13.9219V20.7969C8.07811 20.8425 8.06 20.8862 8.02777 20.9184C7.99554 20.9506 7.95182 20.9687 7.90624 20.9687H3.21233C3.16675 20.9687 3.12303 20.9506 3.0908 20.9184C3.05856 20.8862 3.04046 20.8425 3.04046 20.7969V8.92031L10.878 1.08109C10.9102 1.04908 10.9537 1.03111 10.9991 1.03111C11.0445 1.03111 11.0881 1.04908 11.1203 1.08109L18.963 8.92374L18.9647 20.7969Z" fill="#444444"/>
</g>
<defs>
<clipPath id="clip0_4_80">
<rect width="22" height="22" fill="white"/>
</clipPath>
</defs>
</svg>
